<?xml version="1.0" encoding="utf-8"?>
<!-- Generator: Adobe Illustrator 26.0.1, SVG Export Plug-In . SVG Version: 6.00 Build 0)  -->
<svg version="1.1" id="Layer_1" xmlns="http://www.w3.org/2000/svg" xmlns:xlink="http://www.w3.org/1999/xlink" x="0px" y="0px"
	 viewBox="0 0 549 127" style="enable-background:new 0 0 549 127;" xml:space="preserve">
<style type="text/css">
	.st0{fill:#FFFFFF;}
	.st1{fill:#A082DA;}
</style>
<g>
	<g>
		<g>
			<path class="st0" d="M125.4,60.8c0-5.7,0.9-10.8,2.6-15.1c1.7-4.3,4-7.9,6.8-10.8s6.1-5,9.7-6.5c3.7-1.5,7.4-2.2,11.2-2.2
				c9,0,16,2.8,21,8.3c5,5.6,7.5,13.9,7.5,24.9c0,0.8,0,1.8-0.1,2.8c0,1-0.1,2-0.2,2.8h-43c0.4,5.2,2.3,9.3,5.5,12.1
				c3.3,2.9,8,4.3,14.3,4.3c3.7,0,7-0.3,10-1s5.4-1.4,7.2-2.1l2,12.3c-0.8,0.4-2,0.9-3.4,1.3c-1.5,0.5-3.1,0.9-5,1.2
				c-1.9,0.4-3.9,0.7-6,0.9c-2.2,0.2-4.4,0.4-6.6,0.4c-5.7,0-10.7-0.9-15-2.6c-4.2-1.7-7.7-4.1-10.5-7.1c-2.7-3-4.8-6.6-6.1-10.7
				C126.1,70.2,125.4,65.7,125.4,60.8z M169.2,54.1c0-2.1-0.3-4-0.9-5.9s-1.4-3.5-2.6-4.9c-1.1-1.4-2.5-2.4-4.1-3.2
				c-1.6-0.8-3.6-1.2-5.8-1.2c-2.3,0-4.4,0.4-6.1,1.3s-3.2,2-4.4,3.4c-1.2,1.4-2.1,3-2.8,4.9c-0.7,1.8-1.1,3.7-1.4,5.6L169.2,54.1
				L169.2,54.1z"/>
			<path class="st0" d="M245.8,38.5c-1.7,1.7-3.8,4.2-6.5,7.4c-2.7,3.2-5.6,6.7-8.7,10.5c-3.1,3.9-6.2,7.9-9.3,12.1
				c-3.1,4.2-5.9,8.2-8.4,12h33.6v12.6h-51.8v-9.3c1.8-3.3,4.1-6.9,6.9-10.8c2.7-3.9,5.6-7.8,8.5-11.8c2.9-3.9,5.8-7.7,8.7-11.3
				c2.9-3.6,5.4-6.7,7.7-9.3h-30V27.9H246v10.6H245.8z"/>
			<path class="st0" d="M254.4,60.8c0-5.7,0.9-10.8,2.6-15.1c1.7-4.3,4-7.9,6.8-10.8s6.1-5,9.7-6.5c3.7-1.5,7.4-2.2,11.2-2.2
				c9,0,16,2.8,21,8.3c5,5.6,7.5,13.9,7.5,24.9c0,0.8,0,1.8-0.1,2.8c0,1-0.1,2-0.2,2.8h-43c0.4,5.2,2.3,9.3,5.5,12.1
				c3.3,2.9,8,4.3,14.3,4.3c3.7,0,7-0.3,10-1s5.4-1.4,7.2-2.1l2,12.3c-0.8,0.4-2,0.9-3.4,1.3c-1.5,0.5-3.1,0.9-5,1.2
				c-1.9,0.4-3.9,0.7-6,0.9c-2.2,0.2-4.4,0.4-6.6,0.4c-5.7,0-10.7-0.9-15-2.6c-4.2-1.7-7.7-4.1-10.5-7.1c-2.7-3-4.8-6.6-6.1-10.7
				C255.1,70.2,254.4,65.7,254.4,60.8z M298.1,54.1c0-2.1-0.3-4-0.9-5.9c-0.6-1.9-1.4-3.5-2.6-4.9c-1.1-1.4-2.5-2.4-4.1-3.2
				c-1.6-0.8-3.6-1.2-5.8-1.2c-2.3,0-4.4,0.4-6.1,1.3s-3.2,2-4.4,3.4c-1.2,1.4-2.1,3-2.8,4.9c-0.7,1.8-1.1,3.7-1.4,5.6L298.1,54.1
				L298.1,54.1z"/>
			<path class="st0" d="M325.5,60.5c0-4.8,0.7-9.3,2.2-13.5s3.6-7.8,6.4-10.9s6.2-5.5,10.2-7.2s8.5-2.6,13.5-2.6
				c6.1,0,12,1.1,17.4,3.4L372,42c-1.7-0.7-3.7-1.4-5.9-1.9s-4.5-0.7-7-0.7c-5.9,0-10.4,1.8-13.5,5.5c-3.1,3.7-4.6,8.9-4.6,15.6
				c0,6.5,1.5,11.6,4.4,15.4c2.9,3.8,7.8,5.7,14.7,5.7c2.6,0,5.1-0.2,7.6-0.7s4.7-1.1,6.5-1.9l2.1,12.5c-1.7,0.8-4.2,1.6-7.5,2.2
				c-3.4,0.7-6.8,1-10.4,1c-5.6,0-10.4-0.9-14.5-2.6c-4.1-1.7-7.5-4.1-10.2-7.1s-4.7-6.6-6-10.8C326.2,70,325.5,65.4,325.5,60.5z"/>
			<path class="st0" d="M444.4,60.4c0,5.2-0.7,9.8-2.2,14.1c-1.5,4.2-3.6,7.8-6.4,10.8c-2.7,3-6,5.3-9.9,7s-8.1,2.5-12.8,2.5
				s-8.9-0.8-12.7-2.5s-7.1-4-9.8-7s-4.9-6.6-6.4-10.8c-1.5-4.2-2.3-8.9-2.3-14.1c0-5.1,0.8-9.8,2.3-14s3.7-7.8,6.5-10.8
				s6.1-5.3,9.9-6.9c3.8-1.6,8-2.4,12.6-2.4s8.8,0.8,12.6,2.4c3.9,1.6,7.2,3.9,9.9,6.9s4.9,6.6,6.4,10.8
				C443.6,50.6,444.4,55.3,444.4,60.4z M429,60.4c0-6.5-1.4-11.6-4.2-15.4s-6.7-5.7-11.6-5.7c-5,0-8.9,1.9-11.6,5.7
				c-2.8,3.8-4.2,8.9-4.2,15.4c0,6.6,1.4,11.8,4.2,15.6c2.8,3.8,6.7,5.7,11.6,5.7c5,0,8.9-1.9,11.6-5.7C427.6,72.2,429,67,429,60.4z
				"/>
			<path class="st0" d="M492.1,58.8c0-6.8-0.9-11.7-2.6-14.8c-1.7-3-4.9-4.5-9.5-4.5c-1.7,0-3.5,0.1-5.5,0.4c-2,0.2-3.5,0.5-4.5,0.6
				v52.6h-15.1v-63c2.9-0.8,6.7-1.6,11.4-2.4c4.7-0.7,9.7-1.1,14.9-1.1c4.5,0,8.2,0.6,11,1.7c2.9,1.2,5.3,2.7,7.2,4.6
				c0.9-0.7,2.1-1.4,3.5-2.1s3-1.4,4.7-2.1c1.7-0.6,3.6-1.1,5.5-1.6c2-0.4,3.9-0.6,5.9-0.6c5.1,0,9.2,0.7,12.5,2.2s5.9,3.5,7.7,6.1
				c1.9,2.6,3.2,5.8,3.9,9.5s1.1,7.7,1.1,12.1V93h-15.1V58.7c0-6.8-0.8-11.7-2.5-14.8c-1.7-3-4.9-4.5-9.6-4.5
				c-2.4,0-4.7,0.4-6.9,1.2c-2.2,0.8-3.8,1.6-4.9,2.3c0.7,2.1,1.1,4.3,1.4,6.6c0.2,2.3,0.4,4.8,0.4,7.5v36h-15.1V58.8H492.1z"/>
		</g>
	</g>
	<g>
		<path class="st0" d="M16,49.1L16,49.1l91.3-24.5v-3.3V1.7L38.8,20C26.2,23.5,16,36.5,16,49.1z"/>
		<path class="st0" d="M107.3,83.3v22.8l-68.5,18.3c-4.1,1.1-8,1.1-11.4,0c-6.8-2.1-11.4-8.3-11.4-16.7L107.3,83.3z"/>
		<polygon class="st0" points="94.2,41.2 94.2,64 25.8,82.3 25.8,88.8 3,94.9 3,65.6 		"/>
		<polygon class="st1" points="94.2,64 58.5,96.4 16,107.8 51.8,75.3 		"/>
	</g>
</g>
</svg>
